<!--
    Card app version  1 - prisma_muestra svg  - Features:
 * 
 *        -> Setting a 'defualtImage'. 
 * 
 * Note: This sample image was built with Figma. 
 * 
 * 'assets' must be always on 'src' directory

-->
<svg width="610" height="453" viewBox="0 0 610 453" fill="none" xmlns="http://www.w3.org/2000/svg">
<path fill-rule="evenodd" clip-rule="evenodd" d="M250.642 25.7049C254.837 29.5062 258.593 32.0821 262.06 33.3351C265.729 34.6611 269.361 34.577 272.492 32.6065C275.308 30.8335 276.937 27.9961 277.974 25.6113C279.039 23.1625 279.805 20.3942 280.444 18.0817C281.133 15.5888 281.673 13.6354 282.317 12.1331C282.502 11.701 282.662 11.3905 282.788 11.1714C282.973 11.2665 283.207 11.4004 283.496 11.5881C285.151 12.6663 287.628 14.9394 291.15 19.1901C307.357 38.7498 331.304 36.0042 348.217 34.0651L349.068 33.9676C353.494 33.4618 357.403 33.021 360.861 32.9115C364.354 32.801 366.931 33.0529 368.777 33.6754C370.445 34.2377 371.404 35.0516 372.042 36.2875C372.777 37.7102 373.353 40.2227 373.015 44.6165C372.266 54.3522 372.046 60.5606 372.309 64.3885C372.433 66.2041 372.693 68.0903 373.42 69.6408C373.815 70.4817 374.487 71.5305 375.644 72.326C376.889 73.1829 378.257 73.444 379.458 73.3639C381.279 73.2425 382.786 72.2952 383.307 71.968L383.371 71.9279C383.709 71.717 383.952 71.5595 384.148 71.4326C384.221 71.3853 384.287 71.3423 384.349 71.3023C385.116 71.8732 386.052 72.3486 387.165 72.5662C388.781 72.8822 390.24 72.5512 391.377 72.0152C393.368 71.0773 394.737 69.3421 395.542 68.2128C396.296 67.153 397.004 65.9544 397.63 64.8445C397.768 65.6903 397.906 66.6265 398.044 67.6608C399.051 75.2163 400.467 80.3216 402.748 83.5056C404.014 85.2724 405.605 86.5403 407.52 87.2176C409.317 87.8534 410.994 87.8167 412.106 87.7373C412.539 87.7064 412.995 87.6582 413.344 87.6214C413.431 87.6122 413.51 87.6038 413.582 87.5965C414 87.5537 414.281 87.5313 414.516 87.5261C414.727 87.5215 414.842 87.5332 414.894 87.5417C415.077 87.6821 416.057 88.5915 417.211 92.4367C418.764 97.6146 420.353 101.207 422.26 103.653C424.438 106.446 426.817 107.477 428.967 107.989C429.835 108.196 430.356 108.295 430.707 108.361C431.236 108.462 431.383 108.49 431.759 108.703C432.076 108.884 432.919 109.468 434.182 111.628C438.656 142.649 446.356 161.106 454.804 171.44C463.44 182.003 473.376 184.481 480.773 181.675L477.227 172.325C474.958 173.186 469.294 173.364 462.546 165.11C455.695 156.73 448.297 140.12 443.951 109.302L443.826 108.417L443.402 107.629C441.396 103.904 439.265 101.471 436.71 100.015C434.755 98.9014 432.498 98.4873 431.607 98.324C431.543 98.3121 431.485 98.3016 431.436 98.2922C431.371 98.28 431.32 98.2697 431.283 98.261L431.249 98.2529C430.799 98.1461 430.613 98.1018 430.146 97.5034C429.397 96.5429 428.236 94.3854 426.789 89.5633C425.186 84.2183 422.953 80.3207 419.234 78.5274C417.399 77.6425 415.642 77.499 414.297 77.5285C413.641 77.5429 413.031 77.6006 412.563 77.6486C412.465 77.6586 412.375 77.668 412.29 77.6768L412.191 77.6872C411.874 77.7206 411.642 77.745 411.394 77.7627C411.189 77.7773 411.046 77.7802 410.95 77.7791C410.929 77.7524 410.905 77.7202 410.877 77.6818C410.158 76.6783 408.949 73.7836 407.956 66.3391C407.443 62.4876 406.871 59.4787 406.207 57.2214C405.874 56.091 405.482 55.0214 404.993 54.0768C404.526 53.1737 403.816 52.0793 402.705 51.2244C401.451 50.2597 399.816 49.7152 398.036 49.9627C396.456 50.1825 395.288 50.9561 394.577 51.5441C393.223 52.663 392.184 54.2472 391.484 55.3927C390.881 56.3788 390.259 57.5089 389.699 58.5279C389.552 58.795 389.409 59.0545 389.272 59.3017C388.774 60.199 388.329 60.9763 387.918 61.6281C386.986 61.2068 385.979 60.965 384.914 60.9338C383.906 60.9042 382.991 61.0695 382.204 61.3077C382.177 58.0239 382.401 52.9824 382.985 45.3835C383.397 40.0273 382.848 35.4148 380.926 31.6969C378.909 27.7921 375.68 25.4498 371.973 24.1996C368.444 23.0096 364.459 22.7927 360.545 22.9165C356.604 23.0413 352.272 23.5364 347.956 24.0296L347.932 24.0323C329.885 26.0949 311.37 27.9198 298.85 12.8099C295.122 8.31064 291.88 5.11501 288.953 3.20877C286.041 1.31175 282.445 0.0921145 278.848 1.67228C275.648 3.07833 274.024 6.09632 273.125 8.19506C272.207 10.3364 271.508 12.871 270.907 15.0494L270.806 15.4183C270.132 17.8558 269.539 19.9312 268.804 21.6231C268.04 23.3789 267.426 23.979 267.165 24.1435C267.096 24.1867 267.034 24.2158 266.885 24.2246C266.7 24.2356 266.253 24.2175 265.459 23.9305C263.782 23.3242 261.163 21.7438 257.358 18.2951C253.127 14.461 249.252 11.8597 245.608 10.5866C241.794 9.25353 238.095 9.34957 234.839 11.1269C231.802 12.7843 229.833 15.5428 228.488 18.1283C227.123 20.7528 226.132 23.7325 225.328 26.4642C224.951 27.7466 224.598 29.0371 224.266 30.2505L224.265 30.2518L224.188 30.5343C223.828 31.8506 223.493 33.0652 223.151 34.1905C222.654 35.8279 222.218 37.008 221.834 37.8176C221.347 37.4056 220.667 36.754 219.784 35.7319C217.351 32.9149 215.334 30.8435 213.655 29.4944C212.826 28.8288 211.871 28.1677 210.824 27.7235C209.837 27.3051 208.061 26.7846 206.087 27.5102C203.947 28.297 202.95 30.0199 202.537 31.1745C202.145 32.2719 202.076 33.3498 202.07 34.0925C202.061 35.3117 202.231 36.6589 202.428 37.8733C202.327 37.8526 202.226 37.8336 202.125 37.8161C199.487 37.3635 197.242 38.1478 195.547 39.1598C193.965 40.1037 192.609 41.3977 191.582 42.4176C191.233 42.7637 190.914 43.0864 190.61 43.3931C189.894 44.117 189.267 44.7516 188.547 45.3935C186.629 47.1039 185.158 47.8211 183.439 47.7399C181.506 47.6487 178.022 46.4877 172.379 41.3142C169.29 38.4826 166.697 36.4494 164.503 35.2285C162.691 34.2197 159.38 32.7606 156.17 34.5241C152.995 36.2688 152.574 39.7333 152.468 41.0432C152.326 42.7776 152.497 44.7175 152.65 46.2475C152.667 46.4174 152.684 46.5835 152.7 46.7462C150.27 44.7832 147.509 43.1659 144.509 43.1197C140.579 43.0593 138.184 45.5845 136.926 47.7822C135.758 49.823 135.076 52.3497 134.572 54.4621C134.328 55.4871 134.124 56.4119 133.928 57.3072C133.65 58.5693 133.386 59.7729 133.036 61.1156C132.478 63.2588 131.881 64.9752 131.163 66.2478C130.467 67.4813 129.838 67.9817 129.323 68.2031C128.291 68.6466 124.748 69.0706 115.852 62.8931C111.281 59.7186 107.776 57.5731 105.136 56.3018C103.83 55.6728 102.532 55.1571 101.296 54.8878C100.231 54.6558 98.2401 54.3829 96.3062 55.4573C95.4524 55.9316 94.8251 56.5352 94.3696 57.1841C92.5896 57.026 90.7228 57.543 89.2383 58.9907C87.8158 60.378 87.2699 62.1386 87.0136 63.2729C86.4819 65.6259 86.5099 68.6569 86.6191 71.4165C86.6794 72.9381 86.7876 74.747 86.8961 76.5609L86.8962 76.5621C86.9821 77.9984 87.0682 79.4378 87.1308 80.7401C87.2845 83.9375 87.3414 86.9625 87.1347 89.5743C86.9199 92.2888 86.4548 94.0066 85.939 94.9237C85.6346 95.4648 85.529 95.4662 85.2861 95.4694C85.2768 95.4695 85.2673 95.4697 85.2576 95.4698C85.2461 95.47 85.2343 95.4702 85.2222 95.4705C84.3882 95.4931 82.3675 95.0834 78.65 92.76C74.7294 90.3096 71.4149 88.5178 68.8647 87.9538C67.7137 87.6993 65.069 87.3133 62.8651 89.2177C60.6036 91.172 60.6957 93.8814 60.8084 94.9579C60.9453 96.2657 61.3667 97.593 61.7842 98.7168C62.2254 99.9044 62.7938 101.204 63.408 102.538C63.9993 103.821 64.6713 105.217 65.3639 106.656L65.4552 106.845C66.187 108.366 66.9492 109.951 67.7127 111.601C69.8498 116.217 71.846 121.026 73.038 125.591C58.9363 132.613 46.2694 142.118 35.5996 153.538C31.1872 145.532 26.2414 134.829 20.6277 121.107L11.3723 124.893C17.7783 140.552 23.4763 152.709 28.667 161.582C10.7278 184.168 0 212.821 0 244C0 316.902 58.6507 376 131 376C174.347 376 212.777 354.786 236.621 322.099C247.622 326.539 259.753 329 272.5 329C288.75 329 303.999 325.001 317.181 318H373V317H319.014C334.513 308.312 346.996 295.414 354.65 280H376V279H355.138C360.19 268.466 363 256.789 363 244.5C363 215.054 346.869 189.127 322.409 174H376V173H320.753C306.786 164.765 290.239 160 272.5 160C259.97 160 248.034 162.378 237.183 166.676C230.582 157.49 222.837 149.193 214.157 142C213.752 141.664 213.344 141.331 212.935 141C190.499 122.855 162.007 112 131 112C113.775 112 97.3269 115.35 82.2617 121.438C80.7998 116.414 78.7132 111.559 76.7873 107.399C75.9883 105.673 75.1958 104.025 74.4657 102.508L74.0669 101.68C78.0874 104.096 81.9175 105.564 85.4926 105.467C89.8232 105.35 92.8752 102.99 94.6548 99.8263C96.2483 96.9933 96.8535 93.5237 97.1036 90.3631C97.3617 87.1 97.278 83.5624 97.1192 80.2599C97.0404 78.6198 96.9505 77.1426 96.8654 75.7423C96.7661 74.1096 96.6731 72.581 96.6113 71.021C96.6071 70.9147 96.6032 70.81 96.5994 70.7067C98.2928 72.6432 99.529 74.0654 100.409 75.0783C100.781 75.5062 101.09 75.8612 101.343 76.151C101.736 76.6017 102.093 77.0111 102.307 77.2339C102.345 77.2732 102.41 77.3395 102.489 77.4153L102.493 77.4195C102.534 77.4591 102.76 77.677 103.073 77.8991L103.079 77.9033C103.152 77.9569 103.811 78.4412 104.775 78.6787C105.466 78.7983 107.32 78.639 108.401 78.1946C109.506 77.3616 110.732 75.3592 110.94 74.4015C110.974 73.8372 110.896 72.9436 110.826 72.6177C110.77 72.4111 110.657 72.07 110.604 71.9335C110.496 71.669 110.389 71.471 110.345 71.3914C110.294 71.3006 110.243 71.215 110.196 71.1404C119.28 77.4388 126.97 80.0986 133.271 77.3905C136.428 76.0338 138.494 73.6046 139.872 71.1623C141.228 68.7591 142.084 66.0537 142.714 63.6344C143.086 62.2055 143.451 60.5592 143.776 59.0944L143.776 59.093C143.966 58.2343 144.143 57.4373 144.299 56.784C144.634 55.3796 144.931 54.3589 145.203 53.6369C145.597 53.8913 146.118 54.268 146.779 54.8245C149.223 56.8824 151.58 58.5259 153.82 59.2135C155.014 59.5799 156.644 59.8218 158.365 59.2351C160.215 58.6047 161.387 57.2902 162.045 56.0269C163.123 53.9545 163.084 51.4965 163.029 50.1313C162.978 48.8591 162.827 47.4203 162.697 46.1827L162.692 46.138C163.53 46.8193 164.501 47.6589 165.621 48.6858C171.978 54.5123 177.619 57.4763 182.967 57.7288C188.529 57.9914 192.496 55.2711 195.203 52.8565C196.175 51.9896 197.137 51.0164 197.922 50.2229C198.177 49.965 198.414 49.726 198.625 49.5159C199.575 48.5732 200.168 48.0654 200.596 47.7932C200.781 47.9168 201.07 48.1408 201.464 48.5355C202.258 49.3288 203.069 50.0543 203.889 50.6196C204.578 51.0952 205.894 51.9041 207.595 51.9915C208.566 52.0414 209.679 51.8535 210.736 51.2372C211.772 50.6335 212.436 49.8048 212.841 49.0766C213.562 47.7812 213.661 46.4571 213.684 45.7863C213.707 45.1467 213.669 44.463 213.599 43.7855C215.733 45.9867 218.112 47.767 220.802 48.3008C222.665 48.6705 224.519 48.4093 226.173 47.5275C227.717 46.7042 228.804 45.493 229.567 44.3882C231.029 42.2717 231.988 39.5074 232.72 37.0947C233.107 35.8196 233.476 34.4785 233.833 33.1752L233.904 32.9155L233.904 32.9141C234.242 31.6806 234.572 30.4754 234.922 29.2858C235.681 26.705 236.455 24.4816 237.36 22.7428C238.284 20.9651 239.088 20.2001 239.63 19.9044C239.952 19.7286 240.636 19.4418 242.309 20.0267C244.155 20.6716 246.873 22.289 250.642 25.7049ZM241.455 173C240.091 170.849 238.666 168.74 237.183 166.676C232.672 168.463 228.348 170.582 224.247 173H172V174H222.591C211.339 180.959 201.849 190.203 194.882 201.024L193.013 201L193 202L194.253 202.016C186.463 214.498 182 229.012 182 244.5C182 256.789 184.81 268.466 189.862 279H172V280H190.35C198.004 295.414 210.487 308.312 225.986 317H169V318H227.819C230.66 319.509 233.598 320.879 236.621 322.099C237.604 320.752 238.562 319.385 239.495 318H317.181C317.797 317.673 318.408 317.34 319.014 317H240.161C247.58 305.759 253.334 293.307 257.069 280H354.65C354.815 279.668 354.978 279.335 355.138 279H257.345C260.38 267.853 262 256.117 262 244C262 229.615 259.717 215.768 255.495 202.806L348 204L348.013 203L255.163 201.802C251.872 191.965 247.461 182.646 242.083 174H322.409C321.861 173.661 321.309 173.328 320.753 173H241.455ZM241.455 173C241.666 173.332 241.876 173.666 242.083 174H222.591C223.139 173.661 223.691 173.328 224.247 173H241.455ZM255.163 201.802C255.275 202.136 255.386 202.471 255.495 202.806L194.253 202.016C194.46 201.684 194.67 201.353 194.882 201.024L255.163 201.802ZM257.345 279H189.862C190.022 279.335 190.185 279.668 190.35 280H257.069C257.162 279.667 257.254 279.334 257.345 279ZM240.161 317C239.94 317.334 239.718 317.668 239.495 318H227.819C227.203 317.673 226.593 317.34 225.986 317H240.161ZM82.2617 121.438C79.1254 122.706 76.049 124.092 73.038 125.591C73.5854 127.687 73.9632 129.731 74.1074 131.681C74.3307 134.703 73.9658 137.214 73.0228 139.248C72.1143 141.206 70.5174 143.057 67.6471 144.588L65.9253 145.506L65.2807 147.348C61.8047 157.28 58.5862 164.104 55.5215 168.005C54.0139 169.923 52.808 170.787 51.9721 171.133C51.3012 171.41 50.6423 171.461 49.6839 171.089C48.5654 170.655 46.9784 169.601 44.9335 167.386C42.9139 165.198 40.6534 162.104 38.138 157.944C37.3117 156.578 36.466 155.11 35.5996 153.538C33.1843 156.123 30.8712 158.807 28.667 161.582C28.9734 162.105 29.278 162.618 29.5808 163.118C32.2997 167.615 34.9533 171.317 37.5861 174.169C40.1934 176.993 42.9971 179.22 46.0661 180.411C49.2952 181.664 52.6207 181.684 55.7896 180.375C58.7935 179.135 61.283 176.858 63.3847 174.183C67.2966 169.204 70.7673 161.664 74.1016 152.393C77.8033 150.039 80.4468 147.008 82.0944 143.455C83.956 139.442 84.3881 135.11 84.0801 130.944C83.8474 127.795 83.177 124.584 82.2617 121.438ZM282.214 10.9482C282.213 10.9459 282.234 10.9472 282.279 10.9589C282.237 10.9563 282.214 10.9504 282.214 10.9482ZM396.068 58.5953C396.069 58.5955 396.074 58.6035 396.084 58.6206C396.073 58.604 396.068 58.595 396.068 58.5953ZM414.917 87.5459C414.924 87.5486 414.929 87.5497 414.93 87.5497C414.931 87.5497 414.93 87.5495 414.929 87.549C414.927 87.5483 414.923 87.5472 414.917 87.5459ZM377.723 63.6459C377.724 63.6447 377.743 63.6343 377.78 63.6182C377.741 63.639 377.722 63.647 377.723 63.6459ZM203.688 45.4745C203.688 45.4727 203.69 45.4591 203.691 45.4325L203.691 45.4111C203.687 45.4547 203.686 45.4771 203.688 45.4745ZM209.559 42.3828C209.641 42.4292 209.647 42.4432 209.566 42.3877L209.559 42.3828ZM103.225 60.3949C103.225 60.3926 103.224 60.3914 103.224 60.3914C103.224 60.3913 103.225 60.3978 103.229 60.4111C103.227 60.4036 103.226 60.3982 103.225 60.3949ZM101.865 76.662C101.866 76.6632 101.855 76.6475 101.829 76.6107C101.838 76.6245 101.846 76.6359 101.852 76.6443C101.86 76.6552 101.864 76.6613 101.865 76.662ZM66.7056 97.718L66.7174 97.7206C66.6115 97.7073 66.5974 97.694 66.7056 97.718ZM162.494 41.4649C162.497 41.4704 162.489 41.5304 162.459 41.6282C162.475 41.5082 162.491 41.4593 162.494 41.4649ZM159.035 43.6678C158.954 43.6499 158.909 43.6323 158.907 43.6279C158.905 43.6236 158.945 43.6325 159.035 43.6678ZM212.073 34.0741C212.075 34.056 212.076 34.0463 212.075 34.0461C212.075 34.0459 212.075 34.0496 212.074 34.0574C212.074 34.0617 212.073 34.0672 212.073 34.0741ZM385.497 117.821C385.393 117.576 385.292 117.334 385.192 117.097C386.194 116.741 387.081 116.258 387.828 115.775C389.579 114.64 391.176 113.099 392.534 111.676C393.393 110.775 394.328 109.734 395.206 108.755L395.207 108.754C395.683 108.223 396.142 107.711 396.564 107.25C397.875 105.818 399.045 104.622 400.145 103.72C401.273 102.795 402.023 102.436 402.447 102.327C402.677 102.268 402.775 102.264 403.051 102.423C403.504 102.684 404.448 103.465 405.713 105.572L414.287 100.428C412.552 97.5349 410.528 95.1909 408.046 93.7602C405.389 92.2282 402.589 91.9663 399.959 92.6416C397.524 93.2671 395.453 94.6349 393.804 95.9871C392.127 97.3623 390.563 98.9949 389.186 100.5C388.61 101.13 388.086 101.714 387.587 102.271C386.799 103.151 386.072 103.962 385.298 104.773C384.066 106.065 383.124 106.906 382.391 107.382C382.364 107.399 382.338 107.415 382.314 107.431C382.253 107.353 382.186 107.262 382.111 107.154C381.797 106.701 381.377 106.124 380.897 105.637C380.709 105.446 380.162 104.898 379.329 104.49C378.893 104.277 378.045 103.934 376.928 103.963C375.639 103.997 374.369 104.523 373.418 105.503C372.59 106.357 372.269 107.281 372.138 107.789C371.998 108.327 371.971 108.785 371.966 109.063C371.957 109.613 372.03 110.084 372.078 110.35C372.18 110.922 372.35 111.517 372.511 112.032C373.158 114.103 374.536 117.568 376.284 121.71C378.538 127.049 381.551 133.846 384.813 141H376V142H385.27C387.008 145.802 388.81 149.69 390.599 153.5C395.912 164.813 401.191 175.6 404.417 181.459C405.219 182.914 405.957 184.183 406.575 185.107C406.861 185.535 407.253 186.09 407.708 186.574C407.906 186.784 408.368 187.257 409.051 187.653C409.209 187.745 409.549 187.929 410.018 188.087C412.301 193.329 414.985 199.359 417.734 205.145C420.132 210.195 422.614 215.132 424.951 219.239C427.189 223.171 429.597 226.897 431.915 229.044C432.536 229.618 433.31 230.234 434.228 230.702C435.139 231.168 436.479 231.632 438.07 231.456C441.778 231.048 443.247 227.9 443.751 226.306C444.325 224.494 444.519 222.255 444.531 219.829C444.544 217.312 444.359 214.212 443.973 210.486C443.265 203.641 444.711 201.452 445.452 200.831C446.224 200.183 448.286 199.492 453.129 200.772C462.558 203.263 476.178 211.541 490.41 221.365C497.412 226.198 504.377 231.27 510.841 235.979L510.952 236.06L510.957 236.063C517.344 240.715 523.284 245.042 528.177 248.335C530.639 249.993 532.91 251.439 534.892 252.555C536.77 253.612 538.766 254.592 540.577 255.021C540.688 255.048 540.808 255.074 540.935 255.1C541.446 256.346 541.973 257.624 542.504 258.91C543.94 262.382 545.427 265.942 546.77 269.107C546.296 270.494 545.961 272.237 545.691 273.677C545.617 274.073 545.544 274.469 545.471 274.866C545.208 276.294 544.944 277.725 544.623 279.149C544.21 280.978 543.767 282.478 543.278 283.557C543.262 283.592 543.247 283.625 543.232 283.657C543.222 283.679 543.211 283.701 543.201 283.722C542.286 283.007 540.905 281.606 539.037 279.05C536.543 275.638 534.155 273.046 531.74 271.492C529.143 269.822 525.938 269.048 522.784 270.581C520.158 271.857 518.634 274.285 517.732 276.02C516.759 277.891 515.964 280.078 515.297 281.929L515.19 282.224C514.518 284.088 513.945 285.678 513.31 287.026C512.881 287.934 512.535 288.482 512.299 288.795C511.666 288.458 510.486 287.611 508.708 285.645C506.316 283.002 504.344 281.072 502.758 279.976C502.333 279.681 501.822 279.367 501.248 279.111C500.718 278.875 499.83 278.552 498.729 278.549C497.479 278.545 495.986 278.974 494.808 280.19C493.754 281.278 493.423 282.517 493.31 283.246C493.099 284.597 493.38 285.857 493.547 286.516C493.602 286.731 493.663 286.947 493.728 287.165C493.587 286.929 493.443 286.689 493.298 286.445C490.62 281.941 488.473 278.706 486.76 277.07C486.31 276.639 485.561 275.992 484.554 275.56C483.457 275.089 481.412 274.652 479.399 275.937C477.698 277.023 477.155 278.665 476.975 279.335C476.76 280.138 476.713 280.91 476.704 281.468C476.671 283.561 477.192 286.627 477.738 289.576C477.974 290.851 478.225 292.155 478.484 293.495C478.884 295.569 479.301 297.728 479.701 299.994C480.348 303.658 480.881 307.24 481.092 310.344C481.274 313.032 481.176 314.931 480.934 316.102C479.897 315.655 478.062 314.586 475.235 312.187C471.04 308.628 467.761 306.205 465.226 304.787C463.979 304.089 462.633 303.474 461.266 303.191C459.945 302.918 457.724 302.794 455.764 304.327C455.258 304.723 454.857 305.16 454.54 305.612C453.57 305.105 452.427 304.702 451.145 304.624C449.262 304.511 447.527 305.129 446.163 306.277C443.861 308.213 443.073 311.253 442.704 313.363C442.278 315.794 442.153 318.69 442.201 321.753C442.392 333.948 445.429 352.14 448.105 365.017L448.539 367.11L450.352 368.242C471.188 381.247 500.138 398.772 527.178 414.121C525.927 415.987 524.659 418.138 523.443 420.2L523.441 420.202L523.069 420.833C521.528 423.444 520.03 425.942 518.495 428.088C516.923 430.284 515.565 431.742 514.432 432.521C513.447 433.199 513.085 433.085 512.926 433.035L512.917 433.032C512.467 432.892 511.14 432.196 509.16 429.227C504.282 421.909 498.977 418.104 492.85 418.462C490.052 418.625 487.646 419.657 485.73 420.732C484.171 421.607 482.652 422.685 481.428 423.555C481.191 423.723 480.965 423.883 480.752 424.033C479.26 425.08 478.293 425.678 477.526 425.97C477.193 426.097 477.025 426.113 476.979 426.115C476.966 426.116 476.966 426.117 476.959 426.114C476.956 426.113 476.951 426.111 476.943 426.108C476.847 426.068 476.1 425.706 474.886 423.802C473.689 421.925 472.294 418.951 470.731 414.382C469.031 409.412 467.112 405.564 464.726 403.013C462.086 400.189 458.728 398.856 455.064 399.579C451.966 400.19 449.392 402.157 447.496 403.869C445.784 405.416 444.061 407.296 442.512 408.986C442.278 409.242 442.047 409.493 441.822 409.738C439.993 411.725 438.391 413.396 436.858 414.612C435.283 415.861 434.326 416.181 433.84 416.217L433.834 416.218C433.643 416.233 433.02 416.281 431.792 415.04C430.415 413.648 428.637 410.953 426.619 406.085C424.41 400.758 422.164 396.757 419.737 394.068C417.252 391.314 414.051 389.412 410.247 389.808C406.78 390.17 404.176 392.342 402.426 394.229C400.596 396.202 398.985 398.653 397.615 400.883C396.955 401.957 396.383 402.923 395.843 403.835L395.842 403.837C395.139 405.024 394.49 406.119 393.773 407.241C393.368 407.875 393.009 408.403 392.694 408.839C392.413 408.221 392.087 407.414 391.727 406.37C390.311 402.264 388.186 398.736 384.773 396.873C381.148 394.895 377.386 395.477 374.364 396.719C371.41 397.934 368.517 400.02 365.866 402.214C363.234 404.391 360.512 406.957 357.884 409.434L357.882 409.436L357.696 409.611C352.064 414.92 347.01 419.595 342.494 421.781C340.336 422.825 338.829 423.025 337.77 422.842C336.847 422.683 335.564 422.115 334.021 420.028C329.659 414.127 325.54 410.42 321.16 409.434C316.075 408.29 312.57 411.109 310.714 412.964C310.587 413.092 310.444 413.24 310.294 413.399C309.036 410.924 307.196 408.93 304.643 407.836C302.027 406.714 299.354 406.841 297.116 407.309C293.562 408.053 289.557 410.064 286.123 411.788C285.535 412.083 284.965 412.369 284.416 412.64C280.173 414.729 276.566 416.255 273.411 416.499C270.764 416.704 268.364 416.038 265.947 412.93C262.011 407.87 257.804 405.026 252.997 404.969C248.922 404.921 245.508 407.026 243.503 408.262C243.377 408.34 243.257 408.414 243.143 408.484C240.522 410.085 239.872 410.232 239.525 410.191L239.524 410.191C239.491 410.187 239.156 410.153 238.464 409.557C237.699 408.899 236.63 407.665 235.287 405.428C233.634 402.672 231.861 400.43 229.829 398.952C227.627 397.352 225.048 396.619 222.352 397.209C219.939 397.738 218.127 399.187 216.905 400.382C215.654 401.605 214.535 403.058 213.65 404.217L213.411 404.53C212.554 405.655 211.89 406.526 211.23 407.237C211.096 407.382 210.977 407.503 210.872 407.604C210.496 407.202 209.954 406.518 209.266 405.393C207.624 402.706 205.685 400.538 203.298 399.182C200.792 397.758 198.186 397.453 195.732 397.866C193.42 398.256 191.353 399.261 189.648 400.274C187.999 401.254 186.374 402.44 184.959 403.472L184.804 403.585C181.538 405.966 179.42 407.379 177.606 407.733C176.921 407.867 176.398 407.812 175.851 407.57C175.235 407.297 174.246 406.629 172.972 404.963C171.298 402.773 169.668 400.946 168.016 399.834C167.165 399.261 165.921 398.608 164.373 398.499C162.611 398.375 161.041 398.993 159.872 400.011C158.856 400.896 158.291 401.948 157.977 402.648C157.644 403.389 157.414 404.146 157.247 404.763C157.081 405.378 156.934 406.026 156.808 406.579L156.8 406.614C156.664 407.21 156.546 407.729 156.415 408.228C156.302 408.656 156.198 408.994 156.105 409.259C155.916 409.177 155.689 409.069 155.423 408.926C154.061 408.196 152.094 406.794 149.371 404.308C146.387 401.582 143.876 399.619 141.737 398.356C139.796 397.211 137.257 396.088 134.571 396.56C131.963 397.019 130.452 398.676 129.632 400.24C128.213 398.485 126.889 397.093 125.606 396.096C123.912 394.778 121.495 393.554 118.646 394.228C116.219 394.802 114.708 396.553 114.115 397.242L114.092 397.268C113.763 397.649 113.53 397.93 113.347 398.151C113.022 398.545 112.852 398.75 112.572 398.996C112.448 399.105 112.384 399.14 112.371 399.147C112.369 399.147 112.367 399.148 112.364 399.148C112.36 399.149 112.355 399.15 112.349 399.15C112.276 399.158 111.64 399.206 110.133 398.502C106.96 397.019 101.564 392.992 92.6298 383.561L85.3702 390.439C94.4363 400.008 100.915 405.231 105.898 407.561C108.47 408.763 110.981 409.357 113.428 409.092C115.967 408.816 117.84 407.681 119.178 406.504C119.684 406.058 120.179 405.535 120.596 405.064C121.207 405.72 121.997 406.663 123 408C124.9 410.533 126.45 412.409 127.73 413.629C128.339 414.21 129.174 414.924 130.188 415.411C131.194 415.894 133.415 416.603 135.678 415.215C137.599 414.036 138.126 412.141 138.28 411.509C138.48 410.684 138.523 409.875 138.537 409.334C138.545 409.059 138.543 408.667 138.537 408.248C139.631 409.068 140.981 410.188 142.629 411.692C145.656 414.456 148.314 416.46 150.695 417.738C153.025 418.988 155.602 419.818 158.234 419.41C161.107 418.965 163.003 417.224 164.142 415.482C164.903 414.318 165.403 413.048 165.751 411.94C167.544 414.079 169.543 415.714 171.805 416.715C174.446 417.883 177.079 418.024 179.519 417.548C183.781 416.717 187.646 413.893 190.368 411.905L190.696 411.665C192.245 410.535 193.53 409.6 194.758 408.87C195.991 408.137 196.83 407.822 197.393 407.727C197.814 407.656 198.052 407.703 198.358 407.877C198.783 408.118 199.626 408.794 200.734 410.607C202.275 413.13 204.017 415.267 206.136 416.59C208.532 418.085 211.187 418.385 213.695 417.491C215.852 416.722 217.47 415.215 218.562 414.037C219.574 412.947 220.54 411.676 221.332 410.635L221.344 410.619C221.431 410.504 221.517 410.392 221.6 410.283C222.528 409.067 223.237 408.176 223.895 407.533C224.013 407.418 224.116 407.324 224.204 407.248C224.726 407.71 225.577 408.679 226.713 410.572C229.918 415.915 233.575 419.556 238.35 420.122C242.519 420.615 246.079 418.42 248.042 417.21C248.152 417.142 248.257 417.078 248.357 417.016C250.917 415.452 251.958 414.957 252.878 414.968C253.321 414.974 254.989 415.13 258.053 419.07C262.636 424.962 268.361 426.921 274.183 426.469C279.497 426.058 284.702 423.646 288.834 421.61C289.539 421.263 290.21 420.929 290.85 420.611C294.401 418.843 296.999 417.551 299.165 417.097C300.286 416.862 300.669 417.012 300.704 417.027L300.705 417.028C300.72 417.034 300.774 417.057 300.878 417.167C300.998 417.293 301.215 417.57 301.469 418.114C302.413 420.138 303.523 422.052 304.999 423.381C305.797 424.099 306.852 424.782 308.179 425.104C309.556 425.438 310.859 425.294 311.964 424.907C313.859 424.243 315.203 422.833 315.826 422.172C316.311 421.657 316.599 421.329 316.846 421.047C317.132 420.721 317.365 420.457 317.786 420.036C318.354 419.467 318.681 419.261 318.836 419.191C318.844 419.187 318.849 419.184 318.854 419.182C318.863 419.176 318.868 419.173 318.886 419.175C318.901 419.177 318.924 419.181 318.965 419.191C319.585 419.33 321.841 420.373 325.979 425.972C328.686 429.635 332.059 432.004 336.069 432.697C339.944 433.365 343.648 432.331 346.85 430.782C352.946 427.832 359.097 422.033 364.285 417.143L364.608 416.838C367.339 414.264 369.86 411.888 372.24 409.919C374.678 407.902 376.637 406.597 378.167 405.968C378.898 405.668 379.367 405.592 379.624 405.584C379.834 405.579 379.914 405.614 379.981 405.65C380.189 405.764 381.189 406.486 382.273 409.63C383.547 413.323 385.145 416.673 387.606 418.59C389.035 419.702 390.841 420.397 392.871 420.241C394.763 420.095 396.268 419.252 397.326 418.447C399.316 416.932 400.948 414.583 402.199 412.626C402.949 411.453 403.801 410.02 404.615 408.651L404.616 408.648C405.153 407.746 405.672 406.871 406.135 406.117C407.453 403.972 408.638 402.236 409.758 401.029C410.532 400.194 411.014 399.899 411.212 399.799C411.404 399.903 411.767 400.162 412.314 400.768C413.617 402.212 415.34 404.992 417.381 409.915C419.613 415.297 421.991 419.352 424.684 422.074C427.513 424.932 430.874 426.472 434.598 426.189C438.018 425.929 440.889 424.178 443.072 422.447C445.297 420.682 447.382 418.463 449.178 416.512C449.428 416.24 449.672 415.974 449.911 415.714L449.914 415.711C451.5 413.983 452.865 412.495 454.199 411.291C455.706 409.93 456.573 409.505 456.931 409.406C457.022 409.466 457.188 409.592 457.422 409.843C458.357 410.842 459.719 413.088 461.269 417.618C462.956 422.549 464.655 426.356 466.454 429.178C468.236 431.974 470.388 434.228 473.151 435.361C476.082 436.562 478.857 436.165 481.087 435.315C483.16 434.525 485.053 433.232 486.498 432.217C486.794 432.009 487.077 431.809 487.349 431.616C488.567 430.755 489.57 430.044 490.625 429.452C491.862 428.757 492.745 428.485 493.432 428.445C494.273 428.396 496.718 428.591 500.84 434.773C503.36 438.554 506.314 441.451 509.947 442.581C513.874 443.802 517.401 442.616 520.099 440.76C522.669 438.993 524.835 436.412 526.626 433.908C528.454 431.355 530.16 428.493 531.681 425.917L532.002 425.373L532.003 425.371C533.442 422.931 534.69 420.816 535.867 419.13L535.926 419.047C536.232 419.218 536.538 419.388 536.844 419.559C537.24 420.716 537.677 422.22 538.135 424.152C539.289 429.027 540.58 432.774 542.196 435.329C543.021 436.634 544.127 437.945 545.649 438.833C547.307 439.8 549.162 440.085 550.968 439.705C552.617 439.358 553.928 438.522 554.874 437.757C555.84 436.976 556.688 436.054 557.411 435.173C558.218 434.191 559.019 433.07 559.777 431.961C563.035 433.657 566.184 435.263 569.197 436.759C570.347 440.348 571.584 443.262 572.94 445.555C574.686 448.507 576.928 450.93 579.926 452.025C583.08 453.176 586.023 452.487 588.28 451.369C590.377 450.33 592.219 448.768 593.702 447.362C596.363 448.197 598.776 448.745 600.779 448.848C602.29 448.926 604.985 448.85 607.058 446.94C609.598 444.6 609.332 441.463 608.808 439.626C608.004 436.815 606.735 433.81 604.21 432.091C601.013 429.916 597.727 430.884 595.739 431.991C593.967 432.978 592.345 434.506 591.074 435.78C587.203 434.232 582.646 432.178 577.553 429.718C576.21 425.032 574.763 421.435 573.082 418.914C571.284 416.218 568.441 413.706 564.463 414.085C561.139 414.402 558.731 416.695 557.332 418.247C557.111 418.493 556.891 418.748 556.674 419.009C555.238 418.24 553.783 417.455 552.31 416.656C549.811 415.299 547.268 413.904 544.689 412.477C544.341 411.814 543.972 411.21 543.582 410.666C542.637 409.351 541.277 407.993 539.351 407.316C537.858 406.792 536.411 406.809 535.127 407.13C508.192 391.924 478.883 374.229 457.468 360.893C454.939 348.35 452.365 332.187 452.199 321.597C452.17 319.74 452.218 318.149 452.333 316.837C452.809 317.409 453.348 318.1 453.95 318.933C456.564 322.542 458.282 324.888 459.318 326.231C459.763 326.808 460.297 327.487 460.774 327.951C460.89 328.065 461.214 328.377 461.675 328.672C461.891 328.81 462.399 329.117 463.116 329.308C463.816 329.495 465.401 329.739 467.032 328.743C468.684 327.734 469.192 326.184 469.342 325.435C469.491 324.684 469.433 324.075 469.402 323.817C469.335 323.266 469.19 322.834 469.141 322.689C468.937 322.09 468.584 321.386 468.375 320.969C468.156 320.533 467.886 320.009 467.6 319.456L467.401 319.07C467.285 318.844 467.165 318.612 467.044 318.375C467.588 318.822 468.161 319.3 468.765 319.813C472.965 323.376 476.982 325.919 480.759 326.332C482.895 326.565 485.083 326.128 486.94 324.733C488.689 323.42 489.657 321.623 490.21 320.026C491.269 316.964 491.305 313.15 491.069 309.668C490.848 306.405 490.337 302.857 489.754 299.44C490.463 300.438 491.129 301.319 491.755 302.089C492.722 303.28 493.678 304.309 494.633 305.122C495.535 305.891 496.746 306.736 498.235 307.13C499.958 307.587 501.936 307.387 503.616 306.147C504.226 305.696 504.699 305.179 505.066 304.663C505.138 304.686 505.212 304.708 505.288 304.729C505.957 304.912 507.047 305.065 508.286 304.655C511.137 303.71 511.682 301.087 511.777 300.435C511.861 299.858 511.844 299.331 511.805 298.933C514.103 299.136 516.261 298.468 518.076 297.076C520.162 295.474 521.475 293.155 522.354 291.291C523.202 289.494 523.928 287.475 524.552 285.742L524.552 285.741L524.703 285.321C525.411 283.36 525.991 281.812 526.604 280.632C526.678 280.49 526.748 280.363 526.812 280.251C527.712 280.967 529.081 282.374 530.963 284.95C533.473 288.385 535.902 290.981 538.362 292.531C540.975 294.177 544.212 294.946 547.367 293.391C550.06 292.064 551.542 289.547 552.386 287.685C553.192 285.907 553.77 283.914 554.213 282.06C555.004 282.367 556.156 282.593 557.509 282.173C560.116 281.363 560.773 279.063 560.894 278.576C561.067 277.873 561.045 277.296 561.037 277.105C561.025 276.84 560.995 276.622 560.974 276.487C560.901 276.021 560.769 275.556 560.686 275.271C560.487 274.589 560.161 273.61 559.719 272.348C559.251 271.01 558.791 269.847 558.327 268.892C557.937 268.091 557.308 266.925 556.319 266.01C554.914 262.708 553.307 258.867 551.746 255.09C550.691 252.539 549.664 250.034 548.739 247.761C548.709 247.558 548.674 247.369 548.639 247.198C548.425 246.147 548.043 245.073 547.596 244.03C546.118 240.582 545.231 238.565 544.846 237.781C544.793 237.674 544.717 237.522 544.63 237.367C544.591 237.295 544.509 237.151 544.396 236.982C544.341 236.899 544.239 236.75 544.098 236.577L544.097 236.576C544.006 236.464 543.664 236.045 543.107 235.65L543.104 235.648C542.891 235.497 540.442 233.759 537.638 235.44C536.873 236.005 535.863 237.257 535.574 237.855C535.428 238.265 535.267 238.97 535.231 239.258C535.179 239.797 535.229 240.221 535.247 240.359C535.27 240.551 535.301 240.706 535.32 240.796C535.345 240.917 535.374 241.031 535.401 241.13C534.874 240.785 534.327 240.421 533.761 240.04C529.027 236.853 523.213 232.619 516.729 227.896C510.28 223.198 503.213 218.052 496.09 213.135C482.072 203.459 467.067 194.112 455.684 191.103C450.12 189.633 443.729 189.223 439.025 193.169C434.289 197.142 433.235 203.859 434.027 211.514C434.181 213.007 434.297 214.353 434.379 215.564C434.14 215.159 433.894 214.735 433.642 214.292C431.48 210.493 429.118 205.805 426.766 200.855C422.424 191.714 418.235 181.926 415.543 175.638C415.321 175.119 415.109 174.624 414.908 174.155C414.254 172.63 413.706 171.356 413.303 170.45C413.104 170.004 412.919 169.598 412.764 169.279C412.691 169.129 412.59 168.927 412.476 168.726C412.423 168.633 412.32 168.456 412.18 168.254C412.11 168.153 411.986 167.983 411.814 167.788C411.689 167.645 411.308 167.22 410.697 166.838C410.359 166.627 409.233 165.99 407.741 166.077C405.287 161.12 402.491 155.297 399.651 149.25C398.523 146.848 397.391 144.417 396.275 142H399V141H395.814C391.859 132.415 388.134 124.068 385.497 117.821ZM395.814 141H384.813C384.965 141.333 385.117 141.666 385.27 142H396.275C396.121 141.666 395.967 141.333 395.814 141ZM381.835 107.677C381.836 107.676 381.84 107.675 381.849 107.673C381.84 107.676 381.835 107.677 381.835 107.677ZM382.673 107.814C382.669 107.812 382.664 107.809 382.658 107.805C382.674 107.818 382.682 107.822 382.682 107.822C382.682 107.821 382.679 107.819 382.673 107.814ZM480.644 317.029C480.643 317.03 480.645 317.027 480.649 317.021C480.646 317.026 480.644 317.029 480.644 317.029ZM121.98 403.466C121.98 403.467 121.969 403.477 121.948 403.495C121.97 403.474 121.98 403.465 121.98 403.466ZM167.103 406.736C167.103 406.736 167.101 406.739 167.098 406.746L167.094 406.757C167.1 406.743 167.103 406.736 167.103 406.736ZM162.42 408.121C162.421 408.122 162.426 408.126 162.436 408.132L162.429 408.127C162.422 408.122 162.419 408.12 162.42 408.121ZM411.048 399.735C411.048 399.732 411.073 399.734 411.123 399.756C411.073 399.75 411.048 399.739 411.048 399.735ZM549.914 428.54C549.656 427.938 549.376 427.192 549.08 426.279C549.681 426.604 550.28 426.926 550.876 427.247C550.546 427.713 550.227 428.144 549.914 428.54ZM601.699 438.855C601.701 438.857 601.669 438.863 601.596 438.866C601.661 438.854 601.698 438.853 601.699 438.855ZM486.706 281.545C486.706 281.547 486.705 281.554 486.704 281.566C486.705 281.549 486.706 281.543 486.706 281.545ZM479.857 284.305C479.819 284.273 479.817 284.267 479.853 284.301L479.857 284.305ZM560.156 274.639C560.161 274.648 560.162 274.65 560.158 274.643L560.156 274.639ZM434.182 223.389C434.182 223.389 434.185 223.381 434.191 223.366C434.186 223.382 434.182 223.389 434.182 223.389ZM172 141V142H143V141H172ZM197 265H186.227V230.091H197.477C200.864 230.091 203.761 230.79 206.17 232.188C208.58 233.574 210.426 235.568 211.71 238.17C212.994 240.761 213.636 243.864 213.636 247.477C213.636 251.114 212.989 254.244 211.693 256.869C210.398 259.483 208.511 261.494 206.034 262.903C203.557 264.301 200.545 265 197 265ZM190.455 261.25H196.727C199.614 261.25 202.006 260.693 203.903 259.58C205.801 258.466 207.216 256.881 208.148 254.824C209.08 252.767 209.545 250.318 209.545 247.477C209.545 244.659 209.085 242.233 208.165 240.199C207.244 238.153 205.869 236.585 204.04 235.494C202.21 234.392 199.932 233.841 197.205 233.841H190.455V261.25ZM248.818 241H244.591C244.341 239.784 243.903 238.716 243.278 237.795C242.665 236.875 241.915 236.102 241.028 235.477C240.153 234.841 239.182 234.364 238.114 234.045C237.045 233.727 235.932 233.568 234.773 233.568C232.659 233.568 230.744 234.102 229.028 235.17C227.324 236.239 225.966 237.812 224.955 239.892C223.955 241.972 223.455 244.523 223.455 247.545C223.455 250.568 223.955 253.119 224.955 255.199C225.966 257.278 227.324 258.852 229.028 259.92C230.744 260.989 232.659 261.523 234.773 261.523C235.932 261.523 237.045 261.364 238.114 261.045C239.182 260.727 240.153 260.256 241.028 259.631C241.915 258.994 242.665 258.216 243.278 257.295C243.903 256.364 244.341 255.295 244.591 254.091H248.818C248.5 255.875 247.92 257.472 247.08 258.881C246.239 260.29 245.193 261.489 243.943 262.477C242.693 263.455 241.29 264.199 239.733 264.71C238.188 265.222 236.534 265.477 234.773 265.477C231.795 265.477 229.148 264.75 226.83 263.295C224.511 261.841 222.688 259.773 221.358 257.091C220.028 254.409 219.364 251.227 219.364 247.545C219.364 243.864 220.028 240.682 221.358 238C222.688 235.318 224.511 233.25 226.83 231.795C229.148 230.341 231.795 229.614 234.773 229.614C236.534 229.614 238.188 229.869 239.733 230.381C241.29 230.892 242.693 231.642 243.943 232.631C245.193 233.608 246.239 234.801 247.08 236.21C247.92 237.608 248.5 239.205 248.818 241ZM297.24 241H293.013C292.763 239.784 292.325 238.716 291.7 237.795C291.087 236.875 290.337 236.102 289.45 235.477C288.575 234.841 287.604 234.364 286.536 234.045C285.467 233.727 284.354 233.568 283.195 233.568C281.081 233.568 279.166 234.102 277.45 235.17C275.746 236.239 274.388 237.812 273.376 239.892C272.376 241.972 271.876 244.523 271.876 247.545C271.876 250.568 272.376 253.119 273.376 255.199C274.388 257.278 275.746 258.852 277.45 259.92C279.166 260.989 281.081 261.523 283.195 261.523C284.354 261.523 285.467 261.364 286.536 261.045C287.604 260.727 288.575 260.256 289.45 259.631C290.337 258.994 291.087 258.216 291.7 257.295C292.325 256.364 292.763 255.295 293.013 254.091H297.24C296.922 255.875 296.342 257.472 295.501 258.881C294.661 260.29 293.615 261.489 292.365 262.477C291.115 263.455 289.712 264.199 288.155 264.71C286.609 265.222 284.956 265.477 283.195 265.477C280.217 265.477 277.57 264.75 275.251 263.295C272.933 261.841 271.109 259.773 269.78 257.091C268.45 254.409 267.786 251.227 267.786 247.545C267.786 243.864 268.45 240.682 269.78 238C271.109 235.318 272.933 233.25 275.251 231.795C277.57 230.341 280.217 229.614 283.195 229.614C284.956 229.614 286.609 229.869 288.155 230.381C289.712 230.892 291.115 231.642 292.365 232.631C293.615 233.608 294.661 234.801 295.501 236.21C296.342 237.608 296.922 239.205 297.24 241ZM304.071 230.091H316.276C318.707 230.091 320.713 230.511 322.293 231.352C323.872 232.182 325.048 233.301 325.821 234.71C326.594 236.108 326.98 237.659 326.98 239.364C326.98 240.864 326.713 242.102 326.179 243.08C325.656 244.057 324.963 244.83 324.099 245.398C323.247 245.966 322.321 246.386 321.321 246.659V247C322.389 247.068 323.463 247.443 324.543 248.125C325.622 248.807 326.526 249.784 327.253 251.057C327.98 252.33 328.344 253.886 328.344 255.727C328.344 257.477 327.946 259.051 327.151 260.449C326.355 261.847 325.099 262.955 323.384 263.773C321.668 264.591 319.435 265 316.685 265H304.071V230.091ZM308.298 261.25H316.685C319.446 261.25 321.406 260.716 322.565 259.648C323.736 258.568 324.321 257.261 324.321 255.727C324.321 254.545 324.02 253.455 323.418 252.455C322.815 251.443 321.957 250.636 320.844 250.034C319.73 249.42 318.412 249.114 316.889 249.114H308.298V261.25ZM308.298 245.432H316.139C317.412 245.432 318.56 245.182 319.582 244.682C320.616 244.182 321.435 243.477 322.037 242.568C322.651 241.659 322.957 240.591 322.957 239.364C322.957 237.83 322.423 236.528 321.355 235.46C320.287 234.381 318.594 233.841 316.276 233.841H308.298V245.432Z" fill="#921721"/>
</svg>
